<svg xmlns="http://www.w3.org/2000/svg" width="256" height="256" viewBox="0 0 256 256" fill="none">
  <!-- Circuit board background -->
  <rect width="256" height="256" rx="16" fill="#1e293b" stroke="#475569" stroke-width="2"/>
  
  <!-- Main processor/hub -->
  <rect x="96" y="96" width="64" height="64" rx="8" fill="#f8fafc" stroke="#cbd5e1" stroke-width="2"/>
  <rect x="104" y="104" width="48" height="48" rx="4" fill="none" stroke="#64748b" stroke-width="2"/>
  
  <!-- Processor pins -->
  <rect x="108" y="88" width="8" height="8" fill="#cbd5e1"/>
  <rect x="124" y="88" width="8" height="8" fill="#cbd5e1"/>
  <rect x="140" y="88" width="8" height="8" fill="#cbd5e1"/>
  <rect x="108" y="160" width="8" height="8" fill="#cbd5e1"/>
  <rect x="124" y="160" width="8" height="8" fill="#cbd5e1"/>
  <rect x="140" y="160" width="8" height="8" fill="#cbd5e1"/>
  
  <!-- Corner connection nodes -->
  <rect x="32" y="32" width="32" height="32" rx="4" fill="#3b82f6"/>
  <rect x="192" y="32" width="32" height="32" rx="4" fill="#10b981"/>
  <rect x="32" y="192" width="32" height="32" rx="4" fill="#f59e0b"/>
  <rect x="192" y="192" width="32" height="32" rx="4" fill="#ef4444"/>
  
  <!-- Side connection nodes -->
  <rect x="8" y="112" width="16" height="32" rx="2" fill="#64748b"/>
  <rect x="232" y="112" width="16" height="32" rx="2" fill="#64748b"/>
  <rect x="112" y="8" width="32" height="16" rx="2" fill="#64748b"/>
  <rect x="112" y="232" width="32" height="16" rx="2" fill="#64748b"/>
  
  <!-- Circuit traces -->
  <path d="M64 48 L80 48 L80 64 L96 64 L96 80 L96 96" stroke="#94a3b8" stroke-width="4" fill="none"/>
  <circle cx="80" cy="64" r="4" fill="#94a3b8"/>
  <circle cx="96" cy="80" r="4" fill="#94a3b8"/>
  
  <path d="M192 48 L176 48 L176 64 L160 64 L160 80 L160 96" stroke="#94a3b8" stroke-width="4" fill="none"/>
  <circle cx="176" cy="64" r="4" fill="#94a3b8"/>
  <circle cx="160" cy="80" r="4" fill="#94a3b8"/>
  
  <path d="M64 208 L80 208 L80 192 L96 192 L96 176 L96 160" stroke="#94a3b8" stroke-width="4" fill="none"/>
  <circle cx="80" cy="192" r="4" fill="#94a3b8"/>
  <circle cx="96" cy="176" r="4" fill="#94a3b8"/>
  
  <path d="M192 208 L176 208 L176 192 L160 192 L160 176 L160 160" stroke="#94a3b8" stroke-width="4" fill="none"/>
  <circle cx="176" cy="192" r="4" fill="#94a3b8"/>
  <circle cx="160" cy="176" r="4" fill="#94a3b8"/>
  
  <!-- Side connections -->
  <path d="M24 128 L96 128" stroke="#94a3b8" stroke-width="3" fill="none"/>
  <path d="M232 128 L160 128" stroke="#94a3b8" stroke-width="3" fill="none"/>
  <path d="M128 24 L128 96" stroke="#94a3b8" stroke-width="3" fill="none"/>
  <path d="M128 232 L128 160" stroke="#94a3b8" stroke-width="3" fill="none"/>
  
  <!-- Additional circuit details -->
  <rect x="40" y="40" width="16" height="16" rx="2" fill="none" stroke="#64748b" stroke-width="1"/>
  <rect x="200" y="40" width="16" height="16" rx="2" fill="none" stroke="#64748b" stroke-width="1"/>
  <rect x="40" y="200" width="16" height="16" rx="2" fill="none" stroke="#64748b" stroke-width="1"/>
  <rect x="200" y="200" width="16" height="16" rx="2" fill="none" stroke="#64748b" stroke-width="1"/>
  
  <!-- Data flow indicators -->
  <circle cx="112" cy="64" r="3" fill="#3b82f6" opacity="0.8"/>
  <circle cx="144" cy="64" r="3" fill="#10b981" opacity="0.8"/>
  <circle cx="112" cy="192" r="3" fill="#f59e0b" opacity="0.8"/>
  <circle cx="144" cy="192" r="3" fill="#ef4444" opacity="0.8"/>
  <circle cx="64" cy="112" r="3" fill="#8b5cf6" opacity="0.8"/>
  <circle cx="64" cy="144" r="3" fill="#06b6d4" opacity="0.8"/>
  <circle cx="192" cy="112" r="3" fill="#f97316" opacity="0.8"/>
  <circle cx="192" cy="144" r="3" fill="#84cc16" opacity="0.8"/>
</svg>