<svg width="32" height="32" viewBox="0 0 32 32" fill="none" xmlns="http://www.w3.org/2000/svg">
  <!-- Circuit board background -->
  <rect width="32" height="32" rx="2" fill="none" stroke="currentColor" stroke-width="0.5" opacity="0.15"/>
  
  <!-- Main processor/hub -->
  <rect x="12" y="12" width="8" height="8" rx="1" fill="currentColor" stroke="currentColor" stroke-width="0.5"/>
  <rect x="13" y="13" width="6" height="6" rx="0.5" fill="none" stroke="currentColor" stroke-width="0.3" opacity="0.6"/>
  
  <!-- Processor pins/contacts -->
  <rect x="13.5" y="11.5" width="1" height="0.5" fill="currentColor" opacity="0.4"/>
  <rect x="15.5" y="11.5" width="1" height="0.5" fill="currentColor" opacity="0.4"/>
  <rect x="17.5" y="11.5" width="1" height="0.5" fill="currentColor" opacity="0.4"/>
  <rect x="13.5" y="20" width="1" height="0.5" fill="currentColor" opacity="0.4"/>
  <rect x="15.5" y="20" width="1" height="0.5" fill="currentColor" opacity="0.4"/>
  <rect x="17.5" y="20" width="1" height="0.5" fill="currentColor" opacity="0.4"/>
  
  <!-- Corner connection nodes (representing different services) -->
  <rect x="4" y="4" width="4" height="4" rx="0.5" fill="currentColor" opacity="0.8"/>
  <rect x="24" y="4" width="4" height="4" rx="0.5" fill="currentColor" opacity="0.8"/>
  <rect x="4" y="24" width="4" height="4" rx="0.5" fill="currentColor" opacity="0.8"/>
  <rect x="24" y="24" width="4" height="4" rx="0.5" fill="currentColor" opacity="0.8"/>
  
  <!-- Side connection nodes -->
  <rect x="1" y="14" width="2" height="4" rx="0.3" fill="currentColor" opacity="0.6"/>
  <rect x="29" y="14" width="2" height="4" rx="0.3" fill="currentColor" opacity="0.6"/>
  <rect x="14" y="1" width="4" height="2" rx="0.3" fill="currentColor" opacity="0.6"/>
  <rect x="14" y="29" width="4" height="2" rx="0.3" fill="currentColor" opacity="0.6"/>
  
  <!-- Circuit traces (connections) -->
  <!-- Top left to center -->
  <path d="M8 6 L10 6 L10 8 L12 8 L12 10 L12 12" stroke="currentColor" stroke-width="1" fill="none" opacity="0.7"/>
  <circle cx="10" cy="8" r="0.4" fill="currentColor" opacity="0.7"/>
  <circle cx="12" cy="10" r="0.4" fill="currentColor" opacity="0.7"/>
  
  <!-- Top right to center -->
  <path d="M24 6 L22 6 L22 8 L20 8 L20 10 L20 12" stroke="currentColor" stroke-width="1" fill="none" opacity="0.7"/>
  <circle cx="22" cy="8" r="0.4" fill="currentColor" opacity="0.7"/>
  <circle cx="20" cy="10" r="0.4" fill="currentColor" opacity="0.7"/>
  
  <!-- Bottom left to center -->
  <path d="M8 26 L10 26 L10 24 L12 24 L12 22 L12 20" stroke="currentColor" stroke-width="1" fill="none" opacity="0.7"/>
  <circle cx="10" cy="24" r="0.4" fill="currentColor" opacity="0.7"/>
  <circle cx="12" cy="22" r="0.4" fill="currentColor" opacity="0.7"/>
  
  <!-- Bottom right to center -->
  <path d="M24 26 L22 26 L22 24 L20 24 L20 22 L20 20" stroke="currentColor" stroke-width="1" fill="none" opacity="0.7"/>
  <circle cx="22" cy="24" r="0.4" fill="currentColor" opacity="0.7"/>
  <circle cx="20" cy="22" r="0.4" fill="currentColor" opacity="0.7"/>
  
  <!-- Side connections -->
  <path d="M3 16 L12 16" stroke="currentColor" stroke-width="0.8" fill="none" opacity="0.5"/>
  <path d="M29 16 L20 16" stroke="currentColor" stroke-width="0.8" fill="none" opacity="0.5"/>
  <path d="M16 3 L16 12" stroke="currentColor" stroke-width="0.8" fill="none" opacity="0.5"/>
  <path d="M16 29 L16 20" stroke="currentColor" stroke-width="0.8" fill="none" opacity="0.5"/>
  
  <!-- Additional circuit details -->
  <rect x="5" y="5" width="2" height="2" rx="0.2" fill="none" stroke="currentColor" stroke-width="0.3" opacity="0.5"/>
  <rect x="25" y="5" width="2" height="2" rx="0.2" fill="none" stroke="currentColor" stroke-width="0.3" opacity="0.5"/>
  <rect x="5" y="25" width="2" height="2" rx="0.2" fill="none" stroke="currentColor" stroke-width="0.3" opacity="0.5"/>
  <rect x="25" y="25" width="2" height="2" rx="0.2" fill="none" stroke="currentColor" stroke-width="0.3" opacity="0.5"/>
  
  <!-- Resistor-like components -->
  <rect x="9" y="15.5" width="2" height="1" rx="0.2" fill="none" stroke="currentColor" stroke-width="0.3" opacity="0.4"/>
  <rect x="21" y="15.5" width="2" height="1" rx="0.2" fill="none" stroke="currentColor" stroke-width="0.3" opacity="0.4"/>
  <rect x="15.5" y="9" width="1" height="2" rx="0.2" fill="none" stroke="currentColor" stroke-width="0.3" opacity="0.4"/>
  <rect x="15.5" y="21" width="1" height="2" rx="0.2" fill="none" stroke="currentColor" stroke-width="0.3" opacity="0.4"/>
  
  <!-- Data flow indicators -->
  <circle cx="14" cy="8" r="0.3" fill="currentColor" opacity="0.4"/>
  <circle cx="18" cy="8" r="0.3" fill="currentColor" opacity="0.4"/>
  <circle cx="14" cy="24" r="0.3" fill="currentColor" opacity="0.4"/>
  <circle cx="18" cy="24" r="0.3" fill="currentColor" opacity="0.4"/>
  <circle cx="8" cy="14" r="0.3" fill="currentColor" opacity="0.4"/>
  <circle cx="8" cy="18" r="0.3" fill="currentColor" opacity="0.4"/>
  <circle cx="24" cy="14" r="0.3" fill="currentColor" opacity="0.4"/>
  <circle cx="24" cy="18" r="0.3" fill="currentColor" opacity="0.4"/>
</svg>