<svg width="24" height="24" viewBox="0 0 24 24" fill="none" xmlns="http://www.w3.org/2000/svg">
  <!-- Circuit board background -->
  <rect width="24" height="24" rx="1.5" fill="none" stroke="#94a3b8" stroke-width="0.4" opacity="0.3"/>
  
  <!-- Central processor/hub -->
  <rect x="9" y="9" width="6" height="6" rx="0.8" fill="#f8fafc" stroke="#cbd5e1" stroke-width="0.4"/>
  <rect x="9.8" y="9.8" width="4.4" height="4.4" rx="0.4" fill="none" stroke="#94a3b8" stroke-width="0.3" opacity="0.8"/>
  
  <!-- Processor pins -->
  <rect x="10.2" y="8.6" width="0.6" height="0.4" fill="#cbd5e1" opacity="0.8"/>
  <rect x="11.7" y="8.6" width="0.6" height="0.4" fill="#cbd5e1" opacity="0.8"/>
  <rect x="13.2" y="8.6" width="0.6" height="0.4" fill="#cbd5e1" opacity="0.8"/>
  <rect x="10.2" y="15" width="0.6" height="0.4" fill="#cbd5e1" opacity="0.8"/>
  <rect x="11.7" y="15" width="0.6" height="0.4" fill="#cbd5e1" opacity="0.8"/>
  <rect x="13.2" y="15" width="0.6" height="0.4" fill="#cbd5e1" opacity="0.8"/>
  
  <!-- Corner connection nodes -->
  <rect x="3" y="3" width="3" height="3" rx="0.4" fill="#cbd5e1"/>
  <rect x="18" y="3" width="3" height="3" rx="0.4" fill="#cbd5e1"/>
  <rect x="3" y="18" width="3" height="3" rx="0.4" fill="#cbd5e1"/>
  <rect x="18" y="18" width="3" height="3" rx="0.4" fill="#cbd5e1"/>
  
  <!-- Circuit traces -->
  <path d="M6 4.5 L7.5 4.5 L7.5 6 L9 6 L9 7.5 L9 9" stroke="#94a3b8" stroke-width="0.8" fill="none" opacity="0.9"/>
  <circle cx="7.5" cy="6" r="0.3" fill="#94a3b8" opacity="0.9"/>
  <circle cx="9" cy="7.5" r="0.3" fill="#94a3b8" opacity="0.9"/>
  
  <path d="M18 4.5 L16.5 4.5 L16.5 6 L15 6 L15 7.5 L15 9" stroke="#94a3b8" stroke-width="0.8" fill="none" opacity="0.9"/>
  <circle cx="16.5" cy="6" r="0.3" fill="#94a3b8" opacity="0.9"/>
  <circle cx="15" cy="7.5" r="0.3" fill="#94a3b8" opacity="0.9"/>
  
  <path d="M6 19.5 L7.5 19.5 L7.5 18 L9 18 L9 16.5 L9 15" stroke="#94a3b8" stroke-width="0.8" fill="none" opacity="0.9"/>
  <circle cx="7.5" cy="18" r="0.3" fill="#94a3b8" opacity="0.9"/>
  <circle cx="9" cy="16.5" r="0.3" fill="#94a3b8" opacity="0.9"/>
  
  <path d="M18 19.5 L16.5 19.5 L16.5 18 L15 18 L15 16.5 L15 15" stroke="#94a3b8" stroke-width="0.8" fill="none" opacity="0.9"/>
  <circle cx="16.5" cy="18" r="0.3" fill="#94a3b8" opacity="0.9"/>
  <circle cx="15" cy="16.5" r="0.3" fill="#94a3b8" opacity="0.9"/>
  
  <!-- Additional circuit details -->
  <rect x="3.8" y="3.8" width="1.4" height="1.4" rx="0.2" fill="none" stroke="#94a3b8" stroke-width="0.2" opacity="0.7"/>
  <rect x="18.8" y="3.8" width="1.4" height="1.4" rx="0.2" fill="none" stroke="#94a3b8" stroke-width="0.2" opacity="0.7"/>
  <rect x="3.8" y="18.8" width="1.4" height="1.4" rx="0.2" fill="none" stroke="#94a3b8" stroke-width="0.2" opacity="0.7"/>
  <rect x="18.8" y="18.8" width="1.4" height="1.4" rx="0.2" fill="none" stroke="#94a3b8" stroke-width="0.2" opacity="0.7"/>
  
  <!-- Data flow indicators -->
  <circle cx="10.5" cy="6" r="0.2" fill="#94a3b8" opacity="0.6"/>
  <circle cx="13.5" cy="6" r="0.2" fill="#94a3b8" opacity="0.6"/>
  <circle cx="10.5" cy="18" r="0.2" fill="#94a3b8" opacity="0.6"/>
  <circle cx="13.5" cy="18" r="0.2" fill="#94a3b8" opacity="0.6"/>
</svg>