<svg xmlns="http://www.w3.org/2000/svg" width="24" height="24" viewBox="0 0 24 24" fill="none" stroke="currentColor" stroke-width="1" stroke-linecap="round" stroke-linejoin="round">
  <!-- Circuit board background -->
  <rect width="24" height="24" rx="1.5" fill="none" stroke="currentColor" stroke-width="0.4" opacity="0.15"/>
  
  <!-- Main processor/hub -->
  <rect x="9" y="9" width="6" height="6" rx="0.8" fill="currentColor" stroke="currentColor" stroke-width="0.4"/>
  <rect x="9.8" y="9.8" width="4.4" height="4.4" rx="0.4" fill="none" stroke="currentColor" stroke-width="0.3" opacity="0.6"/>
  
  <!-- Processor pins -->
  <rect x="10.2" y="8.6" width="0.6" height="0.4" fill="currentColor" opacity="0.4"/>
  <rect x="11.7" y="8.6" width="0.6" height="0.4" fill="currentColor" opacity="0.4"/>
  <rect x="13.2" y="8.6" width="0.6" height="0.4" fill="currentColor" opacity="0.4"/>
  <rect x="10.2" y="15" width="0.6" height="0.4" fill="currentColor" opacity="0.4"/>
  <rect x="11.7" y="15" width="0.6" height="0.4" fill="currentColor" opacity="0.4"/>
  <rect x="13.2" y="15" width="0.6" height="0.4" fill="currentColor" opacity="0.4"/>
  
  <!-- Corner connection nodes -->
  <rect x="3" y="3" width="3" height="3" rx="0.4" fill="currentColor" opacity="0.8"/>
  <rect x="18" y="3" width="3" height="3" rx="0.4" fill="currentColor" opacity="0.8"/>
  <rect x="3" y="18" width="3" height="3" rx="0.4" fill="currentColor" opacity="0.8"/>
  <rect x="18" y="18" width="3" height="3" rx="0.4" fill="currentColor" opacity="0.8"/>
  
  <!-- Side connection nodes -->
  <rect x="1" y="10.5" width="1.5" height="3" rx="0.2" fill="currentColor" opacity="0.6"/>
  <rect x="21.5" y="10.5" width="1.5" height="3" rx="0.2" fill="currentColor" opacity="0.6"/>
  <rect x="10.5" y="1" width="3" height="1.5" rx="0.2" fill="currentColor" opacity="0.6"/>
  <rect x="10.5" y="21.5" width="3" height="1.5" rx="0.2" fill="currentColor" opacity="0.6"/>
  
  <!-- Circuit traces -->
  <path d="M6 4.5 L7.5 4.5 L7.5 6 L9 6 L9 7.5 L9 9" stroke="currentColor" stroke-width="0.8" fill="none" opacity="0.7"/>
  <circle cx="7.5" cy="6" r="0.3" fill="currentColor" opacity="0.7"/>
  <circle cx="9" cy="7.5" r="0.3" fill="currentColor" opacity="0.7"/>
  
  <path d="M18 4.5 L16.5 4.5 L16.5 6 L15 6 L15 7.5 L15 9" stroke="currentColor" stroke-width="0.8" fill="none" opacity="0.7"/>
  <circle cx="16.5" cy="6" r="0.3" fill="currentColor" opacity="0.7"/>
  <circle cx="15" cy="7.5" r="0.3" fill="currentColor" opacity="0.7"/>
  
  <path d="M6 19.5 L7.5 19.5 L7.5 18 L9 18 L9 16.5 L9 15" stroke="currentColor" stroke-width="0.8" fill="none" opacity="0.7"/>
  <circle cx="7.5" cy="18" r="0.3" fill="currentColor" opacity="0.7"/>
  <circle cx="9" cy="16.5" r="0.3" fill="currentColor" opacity="0.7"/>
  
  <path d="M18 19.5 L16.5 19.5 L16.5 18 L15 18 L15 16.5 L15 15" stroke="currentColor" stroke-width="0.8" fill="none" opacity="0.7"/>
  <circle cx="16.5" cy="18" r="0.3" fill="currentColor" opacity="0.7"/>
  <circle cx="15" cy="16.5" r="0.3" fill="currentColor" opacity="0.7"/>
  
  <!-- Side connections -->
  <path d="M2.25 12 L9 12" stroke="currentColor" stroke-width="0.6" fill="none" opacity="0.5"/>
  <path d="M21.75 12 L15 12" stroke="currentColor" stroke-width="0.6" fill="none" opacity="0.5"/>
  <path d="M12 2.25 L12 9" stroke="currentColor" stroke-width="0.6" fill="none" opacity="0.5"/>
  <path d="M12 21.75 L12 15" stroke="currentColor" stroke-width="0.6" fill="none" opacity="0.5"/>
  
  <!-- Additional circuit details -->
  <rect x="3.8" y="3.8" width="1.4" height="1.4" rx="0.2" fill="none" stroke="currentColor" stroke-width="0.2" opacity="0.5"/>
  <rect x="18.8" y="3.8" width="1.4" height="1.4" rx="0.2" fill="none" stroke="currentColor" stroke-width="0.2" opacity="0.5"/>
  <rect x="3.8" y="18.8" width="1.4" height="1.4" rx="0.2" fill="none" stroke="currentColor" stroke-width="0.2" opacity="0.5"/>
  <rect x="18.8" y="18.8" width="1.4" height="1.4" rx="0.2" fill="none" stroke="currentColor" stroke-width="0.2" opacity="0.5"/>
  
  <!-- Resistor-like components -->
  <rect x="6.8" y="11.5" width="1.4" height="0.8" rx="0.2" fill="none" stroke="currentColor" stroke-width="0.2" opacity="0.4"/>
  <rect x="15.8" y="11.5" width="1.4" height="0.8" rx="0.2" fill="none" stroke="currentColor" stroke-width="0.2" opacity="0.4"/>
  <rect x="11.6" y="6.8" width="0.8" height="1.4" rx="0.2" fill="none" stroke="currentColor" stroke-width="0.2" opacity="0.4"/>
  <rect x="11.6" y="15.8" width="0.8" height="1.4" rx="0.2" fill="none" stroke="currentColor" stroke-width="0.2" opacity="0.4"/>
  
  <!-- Data flow indicators -->
  <circle cx="10.5" cy="6" r="0.2" fill="currentColor" opacity="0.4"/>
  <circle cx="13.5" cy="6" r="0.2" fill="currentColor" opacity="0.4"/>
  <circle cx="10.5" cy="18" r="0.2" fill="currentColor" opacity="0.4"/>
  <circle cx="13.5" cy="18" r="0.2" fill="currentColor" opacity="0.4"/>
  <circle cx="6" cy="10.5" r="0.2" fill="currentColor" opacity="0.4"/>
  <circle cx="6" cy="13.5" r="0.2" fill="currentColor" opacity="0.4"/>
  <circle cx="18" cy="10.5" r="0.2" fill="currentColor" opacity="0.4"/>
  <circle cx="18" cy="13.5" r="0.2" fill="currentColor" opacity="0.4"/>
</svg>